<?xml version="1.0" encoding="utf-8"?>
<!-- Generator: Adobe Illustrator 25.2.0, SVG Export Plug-In . SVG Version: 6.00 Build 0)  -->
<svg version="1.1" id="Laag_1" xmlns="http://www.w3.org/2000/svg" xmlns:xlink="http://www.w3.org/1999/xlink" x="0px" y="0px"
	 viewBox="0 0 501 501" enable-background="new 0 0 501 501" xml:space="preserve">
<g transform="translate(0.000000,501.000000) scale(0.100000,-0.100000)">
	<path d="M3272.91,4175.61c-95-20-196-64-286-122c-85-56-215-187-279-281c-42-62-130-225-130-242c0-4,17,1,38,12
		c69,36,190,58,572,104c158,19,301,55,388,98c86,42,191,146,254,253c70,119,72,110-19,139
		C3631.91,4192.61,3422.91,4208.61,3272.91,4175.61z"/>
	<path d="M1312.91,2177.61c-57-115-118-251-135-302c-118-353-53-723,192-1090c124-186,286-332,452-408c139-64,180-69,581-69
		c110,0,256,0,325,0c100,0,141,4,205,22c287,81,543,308,697,617c142,284,174,595,92,883c-33,116-144,339-242,487
		c-319,481-377,577-492,811c-95,195-123,229-218,276c-38,18-64,21-171,22l-126,1l3,25c13,117,119,387,193,492l19,26l-52,25
		c-68,32-122,41-136,25c-42-52-88-270-107-511l-7-87l-52,6c-28,3-84,12-125,20c-158,30-252,12-351-68c-61-49-95-107-141-246"/>
</g>
<g transform="translate(0.000000,501.000000) scale(0.100000,-0.100000)">
	<path d="M957.7,3873.21c-179.59-221.68-327.68-404.71-329.19-406.66c-1.51-1.95,40.77,1.75,94.45,8.39l97.31,11.65l76.23-132.72
		l76.07-133.37l-6.8-25.03c-6.01-21.8-5.59-27.17,4.03-44.27c11.78-20.95,32.08-33.84,49.07-30.63c9.01,1.61,9.49,0.75,7.76-9.16
		c-4.96-24.58,6.93-54.99,80.41-208.83c40.6-85.16,76.13-158.54,78.78-163.24c4.57-8.12,4.97-7.9,14.02,9.41
		c13.5,24.25,49.36,44.02,80.32,43.72l23.06-0.17l-17.54,25.61c-9.61,14.3-53.11,80.5-96.85,147.11
		c-81.47,125.35-96.05,144.76-121.14,160.61c-14.87,9.73-14.87,9.73-8.03,20.78c15.09,25.13-0.25,65.39-29.65,77.75
		c-9.67,4.19-19.8,6.44-22.59,4.91c-3.59-1.98-22.1,28.14-79.09,129.46l-74.31,132.1l18.51,2.36c10.05,1.62,25.92,3.09,35.02,3.62
		c8.7,0.31,43.72,3.94,77.22,8.41c33.74,4.04,66.84,8.29,74.26,9.02c10.69,1.41,18.89,8.17,45.3,40.1
		c133.4,158.12,295.2,284.3,476.42,371.33c130.38,62.36,254.27,100.99,396.4,123.9l83.03,13.85l28.8,33.24
		c15.99,18.9,79.94,97.28,142.13,174.14c91.94,113.98,111.1,140.23,101.85,139.05c-6.14-1.15-104.49-12.81-218.64-27.01
		c-637.89-77.81-822.38-100.56-826.13-103.19C1286.02,4277.71,1137.29,4094.88,957.7,3873.21z"/>
	<path d="M854.01,3490.62"/>
	<path d="M1505.37,3817.27c-92.33-57.63-181.04-124.46-236.12-177.79c-10.03-10.01-22.45-21.34-27.3-25.69
		c-4.86-4.36-12.73-12.62-18.06-18.92c-4.93-6.08-24.42-28.03-43.2-48.46c-18.54-20.86-39.86-46.06-47.17-56.25
		c-12.56-17.57-13.19-20.16-5.65-37.28c4.49-9.84,51.87-94.06,105.33-187.25l97.31-169.27l55.05,61.72
		c190.38,216.42,432.64,362.88,712.45,431.46c46.49,11.07,150.97,29.47,185.03,32.01c8.06,0.52,2.44,11.43-97.6,189.27
		l-106.3,188.96l-21.06-1.53c-26.41-2.24-147.8-22.12-175.46-29.53c-90.82-23.19-236.87-73.47-288.42-99.65
		C1579.38,3861.99,1539.46,3838.31,1505.37,3817.27z"/>
</g>
</svg>
