<?xml version="1.0" encoding="iso-8859-1"?>
<!-- Generator: Adobe Illustrator 19.0.0, SVG Export Plug-In . SVG Version: 6.00 Build 0)  -->
<svg version="1.1" id="Capa_1" xmlns="http://www.w3.org/2000/svg" xmlns:xlink="http://www.w3.org/1999/xlink" x="0px" y="0px"
	 viewBox="0 0 512 512" style="enable-background:new 0 0 512 512;" xml:space="preserve">
<g>
	<polygon style="fill:#E7ECED;" points="127.852,287.445 7.638,407.658 7.638,367.186 55.724,319.502 7.638,319.502 7.638,287.445 	
		"/>
	<polygon style="fill:#E7ECED;" points="216.008,303.473 216.008,447.729 183.952,447.729 183.952,447.489 183.952,375.361 
		119.837,447.489 119.837,447.729 71.752,447.729 	"/>
	<polygon style="fill:#E7ECED;" points="432.393,447.729 384.308,447.729 384.308,447.489 320.194,375.361 320.194,447.489 
		320.194,447.729 288.137,447.729 288.137,303.473 	"/>
	<polygon style="fill:#E7ECED;" points="504.522,375.601 504.522,415.673 376.294,287.445 504.522,287.445 504.522,319.502 
		448.422,319.502 	"/>
	<polygon style="fill:#E7ECED;" points="504.522,191.274 504.522,223.33 376.294,223.33 504.522,95.103 504.522,135.174 
		448.422,191.274 	"/>
	<polygon style="fill:#E7ECED;" points="432.393,63.045 288.137,207.302 288.137,63.045 320.194,63.045 320.194,135.174 
		384.308,63.045 	"/>
	<polygon style="fill:#E7ECED;" points="216.008,63.045 216.008,207.302 71.752,63.045 119.837,63.045 183.952,135.174 
		183.952,63.045 	"/>
	<polygon style="fill:#E7ECED;" points="127.852,223.33 7.638,223.33 7.638,191.274 55.724,191.274 7.638,143.588 7.638,103.117 	
		"/>
</g>
<g>
	<polygon style="fill:#83B6FF;" points="55.724,319.502 7.638,367.186 7.638,319.502 	"/>
	<polygon style="fill:#83B6FF;" points="183.952,447.489 183.952,447.729 119.837,447.729 119.837,447.489 183.952,375.361 	"/>
	<polygon style="fill:#83B6FF;" points="384.308,447.489 384.308,447.729 320.194,447.729 320.194,447.489 320.194,375.361 	"/>
	<polygon style="fill:#83B6FF;" points="504.522,319.502 504.522,375.601 448.422,319.502 	"/>
	<polygon style="fill:#83B6FF;" points="504.522,135.174 504.522,191.274 448.422,191.274 	"/>
	<polygon style="fill:#83B6FF;" points="384.308,63.045 320.194,135.174 320.194,63.045 	"/>
	<polygon style="fill:#83B6FF;" points="183.952,63.045 183.952,135.174 119.837,63.045 	"/>
	<polygon style="fill:#83B6FF;" points="55.724,191.274 7.638,191.274 7.638,143.588 	"/>
</g>
<polygon style="fill:#EF3F40;" points="504.522,415.673 504.522,447.729 432.393,447.729 288.137,303.473 288.137,447.729 
	216.008,447.729 216.008,303.473 71.752,447.729 7.638,447.729 7.638,407.658 127.852,287.445 7.638,287.445 7.638,223.33 
	127.852,223.33 7.638,103.117 7.638,63.045 71.752,63.045 216.008,207.302 216.008,63.045 288.137,63.045 288.137,207.302 
	432.393,63.045 504.522,63.045 504.522,95.103 376.294,223.33 504.522,223.33 504.522,287.445 376.294,287.445 "/>
<g>
	<polygon style="fill:#C93435;" points="71.752,343.544 7.638,407.658 7.638,447.729 71.752,447.729 	"/>
	<polygon style="fill:#C93435;" points="71.752,63.045 7.638,63.045 7.638,103.117 71.752,167.23 	"/>
	<rect x="7.638" y="223.33" style="fill:#C93435;" width="64.117" height="64.117"/>
</g>
<path style="fill:#231F20;" d="M0,56.1V455.9h512V56.1H0z M327.673,71.217h39.724l-39.724,44.689V71.217z M295.616,71.217h16.94
	v84.45l75.066-84.45h26.443l-118.45,118.451V71.217z M176.313,71.217v44.689l-39.724-44.689
	C136.589,71.217,176.313,71.217,176.313,71.217z M15.117,162.339l22.171,21.988H15.117V162.339z M15.117,327.673h22.171
	l-22.171,21.985V327.673z M15.117,370.951L74,312.555H15.117v-16.94h94.407l-94.407,94.408V370.951z M176.313,440.783h-39.937
	l39.937-44.93L176.313,440.783L176.313,440.783z M208.371,440.783H191.43v-84.691l-75.28,84.691H89.921l118.451-118.451
	L208.371,440.783L208.371,440.783z M327.673,440.783v-44.93l39.937,44.93H327.673z M387.836,440.783l-75.281-84.691v84.691h-16.94
	v-118.45l118.449,118.451h-26.228V440.783z M496.883,357.966l-30.294-30.293h30.294V357.966z M496.883,184.328h-30.294
	l30.294-30.293V184.328z M496.883,132.656l-66.788,66.789h66.789v16.94H394.462l102.421-102.422V132.656z M496.883,92.584
	L357.966,231.501h138.917v48.998h-56.556l0.005,15.117h56.551v16.94h-66.789l66.789,66.789v18.692L394.462,295.616h21.824v-15.117
	h-58.32l138.917,138.917v21.369h-61.439L280.499,285.838v154.946h-57.011V285.838L68.542,440.783H15.117v-29.383L146.02,280.498
	H15.117V231.5H47.63v-15.117H15.117v-16.938H74l-58.883-58.393v-19.075l94.407,94.407H71.675v15.117h74.345L15.117,100.599V71.217
	h53.425l154.946,154.945V111.74h-15.117v77.927L89.921,71.217h26.443l75.066,84.45v-84.45h16.941v16.486h15.117V71.217h57.011
	v154.945L435.444,71.217h61.439L496.883,92.584L496.883,92.584z"/>
<g>
</g>
<g>
</g>
<g>
</g>
<g>
</g>
<g>
</g>
<g>
</g>
<g>
</g>
<g>
</g>
<g>
</g>
<g>
</g>
<g>
</g>
<g>
</g>
<g>
</g>
<g>
</g>
<g>
</g>
</svg>
